<?xml version="1.0" encoding="UTF-8" standalone="no"?>
<svg
   xmlns:dc="http://purl.org/dc/elements/1.1/"
   xmlns:cc="http://creativecommons.org/ns#"
   xmlns:rdf="http://www.w3.org/1999/02/22-rdf-syntax-ns#"
   xmlns:svg="http://www.w3.org/2000/svg"
   xmlns="http://www.w3.org/2000/svg"
   viewBox="0 0 2829.3333 2829.3333"
   height="500"
   width="500"
   xml:space="preserve"
   id="svg2"
   version="1.1"><metadata
     id="metadata8"><rdf:RDF><cc:Work
         rdf:about=""><dc:format>image/svg+xml</dc:format><dc:type
           rdf:resource="http://purl.org/dc/dcmitype/StillImage" /></cc:Work></rdf:RDF></metadata><defs
     id="defs6" /><g
     transform="matrix(1.3333333,0,0,-1.3333333,0,2829.3333)"
     id="g10"><g
       transform="scale(0.1)"
       id="g12"><path
         id="path14"
         style="fill:#f0751e;fill-opacity:1;fill-rule:nonzero;stroke:none"
         d="M 10751.4,3491.8 V 2129.9 c 430.4,7.4 853.8,50 1266.9,125.8 v 1361.9 c -411.9,-75.2 -835.1,-118 -1266.9,-125.8" /><path
         id="path16"
         style="fill:#f0751e;fill-opacity:1;fill-rule:nonzero;stroke:none"
         d="M 2832.35,10610.9 C 2699.53,9091.6 3012.02,7633.8 3663.33,6368.2 v 1359.3 c -451.68,877.5 -741.46,1851.8 -830.98,2883.4" /><path
         id="path18"
         style="fill:#f0751e;fill-opacity:1;fill-rule:nonzero;stroke:none"
         d="M 6367.47,4740.9 V 3378.6 c 360.28,-233.4 741.93,-438 1141.8,-610.7 v 1361.4 c -398.95,172.7 -780.68,377.6 -1141.8,611.6" /><g
         transform="scale(1.06387)"
         id="g20"><path
           id="path22"
           style="fill:#f0751e;fill-opacity:1;fill-rule:nonzero;stroke:none"
           d="M 15507.6,5805.12 V 4524.8 c 296.2,340.35 561.7,709.1 792.4,1102.1 v 1280.8 c -230.3,-392.25 -495.6,-761.28 -792.4,-1102.58" /></g><g
         transform="scale(1.13026)"
         id="g24"><path
           id="path26"
           style="fill:#f0751e;fill-opacity:1;fill-rule:nonzero;stroke:none"
           d="M 15617.9,7019.64 V 5814.87 c 334.6,701.43 555.8,1471.52 637.3,2289.39 43.6,437.25 44.8,868.83 8,1291.21 -72.4,-844.5 -296.5,-1645.64 -645.3,-2375.83" /></g><path
         id="path28"
         style="fill:#f0751e;fill-opacity:1;fill-rule:nonzero;stroke:none"
         d="m 15237.6,5012.4 v -1361 c 346.2,255.4 670.9,539.1 970.9,848 v 1361.8 c -299.5,-308.7 -624.1,-592.8 -970.9,-848.8" /><path
         id="path30"
         style="fill:#f0751e;fill-opacity:1;fill-rule:nonzero;stroke:none"
         d="M 5107.03,5757.3 V 4395.9 c 300.06,-298.3 624.46,-573.1 970.89,-820.4 v 1362.2 c -345.7,246.7 -670.34,521 -970.89,819.6" /><path
         id="path32"
         style="fill:#f0751e;fill-opacity:1;fill-rule:nonzero;stroke:none"
         d="M 12326.1,3680.4 V 2318.7 c 409.1,92.3 806.9,217.2 1190.6,371.7 v 1360.7 c -382.8,-154 -780.5,-278.5 -1190.6,-370.7" /><path
         id="path34"
         style="fill:#f0751e;fill-opacity:1;fill-rule:nonzero;stroke:none"
         d="M 9297.21,3599.9 V 2239.5 c 176.61,-29.8 355.28,-54.4 536.19,-72.4 210.7,-21 420.3,-33.1 628.4,-37.2 v 1361.9 c -396.1,7.2 -784.98,44 -1164.59,108.1" /><path
         id="path36"
         style="fill:#f0751e;fill-opacity:1;fill-rule:nonzero;stroke:none"
         d="M 13806.3,4174.1 V 2813.4 c 398.7,179.7 780.6,392 1141.8,634.1 v 1360.8 c -360.5,-241.8 -742.2,-454.4 -1141.8,-634.2" /><path
         id="path38"
         style="fill:#f0751e;fill-opacity:1;fill-rule:nonzero;stroke:none"
         d="M 7798.82,4010.8 V 2649.7 c 382.23,-147.1 779.85,-265.3 1190.62,-351.8 v 1360.2 c -409.65,86.4 -807.41,204.9 -1190.62,352.7" /><path
         id="path40"
         style="fill:#f0751e;fill-opacity:1;fill-rule:nonzero;stroke:none"
         d="m 3974.47,7179.6 v -1360 c 247.27,-398 529.29,-773.2 843.01,-1120.5 v 1361.5 c -313.14,346.1 -595.36,720.7 -843.01,1119" /><path
         id="path42"
         style="fill:#c44420;fill-opacity:1;fill-rule:nonzero;stroke:none"
         d="M 4817.48,6060.6 V 4699.1 c 93.68,-103.6 190.4,-204.6 289.55,-303.2 v 1361.4 c -99.17,98.5 -195.75,199.6 -289.55,303.3" /><path
         id="path44"
         style="fill:#c44420;fill-opacity:1;fill-rule:nonzero;stroke:none"
         d="M 3663.33,7727.5 V 6368.2 c 96.36,-187.3 200.3,-370.2 311.14,-548.6 v 1360 c -110.71,178 -214.75,360.7 -311.14,547.9" /><path
         id="path46"
         style="fill:#c44420;fill-opacity:1;fill-rule:nonzero;stroke:none"
         d="M 6077.92,4937.7 V 3575.5 c 94.89,-67.7 191.46,-133.3 289.55,-196.9 v 1362.3 c -98.01,63.6 -194.64,129.1 -289.55,196.8" /><path
         id="path48"
         style="fill:#c44420;fill-opacity:1;fill-rule:nonzero;stroke:none"
         d="m 10606.6,3489.9 c -48.4,0 -96.6,1 -144.8,1.9 V 2129.9 c 96.9,-1.9 193.4,-1.7 289.6,0 v 1361.9 c -48.2,-0.9 -96.4,-1.9 -144.8,-1.9" /><path
         id="path50"
         style="fill:#c44420;fill-opacity:1;fill-rule:nonzero;stroke:none"
         d="M 7509.27,4129.3 V 2767.9 c 95.48,-41.3 192.02,-80.6 289.55,-118.2 v 1361.1 c -97.48,37.6 -194,77.1 -289.55,118.5" /><path
         id="path52"
         style="fill:#c44420;fill-opacity:1;fill-rule:nonzero;stroke:none"
         d="M 8989.44,3658.1 V 2297.9 c 101.8,-21.4 204.4,-40.9 307.77,-58.4 v 1360.4 c -103.28,17.4 -205.91,36.8 -307.77,58.2" /><g
         transform="scale(1.01215)"
         id="g54"><path
           id="path56"
           style="fill:#c44420;fill-opacity:1;fill-rule:nonzero;stroke:none"
           d="M 16013.9,5790.82 V 4445.37 c 98,100.88 193.5,204.32 286.1,310.63 v 1345.74 c -92.5,-106.3 -188,-209.85 -286.1,-310.92" /></g><g
         transform="scale(1.08296)"
         id="g58"><path
           id="path60"
           style="fill:#c44420;fill-opacity:1;fill-rule:nonzero;stroke:none"
           d="M 16012.7,6785.96 V 5527.74 c 103.1,175.54 199,356.06 287.3,541.11 v 1257.39 c -88.2,-184.59 -184.2,-364.74 -287.3,-540.28" /></g><path
         id="path62"
         style="fill:#c44420;fill-opacity:1;fill-rule:nonzero;stroke:none"
         d="M 14948.1,4808.3 V 3447.5 c 98.1,65.7 194.6,133.9 289.5,203.9 v 1361 c -94.9,-70.1 -191.4,-138.3 -289.5,-204.1" /><path
         id="path64"
         style="fill:#c44420;fill-opacity:1;fill-rule:nonzero;stroke:none"
         d="M 13516.7,4051.1 V 2690.4 c 97.4,39.2 194.1,80 289.6,123 v 1360.7 c -95.5,-43 -192.1,-83.8 -289.6,-123" /><path
         id="path66"
         style="fill:#c44420;fill-opacity:1;fill-rule:nonzero;stroke:none"
         d="M 12018.3,3617.6 V 2255.7 c 103.3,19 205.9,40 307.8,63 v 1361.7 c -101.8,-22.9 -204.4,-43.9 -307.8,-62.8" /><g
         transform="scale(1.1717)"
         id="g68"><path
           id="path70"
           style="fill:#f7982a;fill-opacity:1;fill-rule:nonzero;stroke:none"
           d="m 3392.06,6127.52 c 211.36,-339.94 452.22,-659.64 719.48,-955.03 80.05,-88.5 162.48,-174.79 247.12,-258.85 256.51,-254.85 533.57,-488.95 828.62,-699.5 81,-57.78 163.47,-113.68 247.11,-167.96 308.21,-199.71 634,-374.59 974.49,-521.98 81.55,-35.33 163.92,-69.04 247.12,-101.13 327.05,-126.15 666.53,-227.28 1016.15,-301.02 86.93,-18.26 174.52,-34.82 262.67,-49.67 323.98,-54.71 655.87,-86.12 993.93,-92.26 41.14,-0.77 82.27,-1.62 123.58,-1.62 41.31,0 82.45,0.85 123.59,1.62 368.52,6.66 729.71,43.19 1081.28,107.37 88.2,16.13 175.8,34.05 262.7,53.59 350,78.69 689.4,184.95 1016.1,316.38 83.2,33.46 165.6,68.28 247.2,104.98 341,153.45 666.8,334.9 974.4,541.26 83.8,56.16 166.1,114.37 247.1,174.2 296,218.48 573,460.95 828.6,724.41 84.8,87.31 167.3,176.76 247.2,268.59 269.4,309.89 510.4,644.96 719.5,1001.11 95.2,162.24 184,328.75 265.5,499.36 336.5,704.36 552.7,1477.17 622.5,2291.8 16.3,189.9 25.1,381.93 25.1,576.1 0,3678.63 -2982.2,6660.73 -6660.77,6660.73 -3678.62,0 -6660.73,-2982.1 -6660.73,-6660.73 0,-196.56 9.03,-390.98 25.7,-583.27 76.41,-880.43 323.72,-1711.96 709.22,-2460.87 82.26,-159.77 171.05,-315.7 265.54,-467.61" /></g><g
         transform="scale(1.06865)"
         id="g72"><path
           id="centro"
           transform="translate(2300 2300) scale(0.85)"
           style="fill:#f6841d;fill-opacity:1;fill-rule:nonzero;stroke:none"
           d="m 3392.06,6127.52 c 211.36,-339.94 452.22,-659.64 719.48,-955.03 80.05,-88.5 162.48,-174.79 247.12,-258.85 256.51,-254.85 533.57,-488.95 828.62,-699.5 81,-57.78 163.47,-113.68 247.11,-167.96 308.21,-199.71 634,-374.59 974.49,-521.98 81.55,-35.33 163.92,-69.04 247.12,-101.13 327.05,-126.15 666.53,-227.28 1016.15,-301.02 86.93,-18.26 174.52,-34.82 262.67,-49.67 323.98,-54.71 655.87,-86.12 993.93,-92.26 41.14,-0.77 82.27,-1.62 123.58,-1.62 41.31,0 82.45,0.85 123.59,1.62 368.52,6.66 729.71,43.19 1081.28,107.37 88.2,16.13 175.8,34.05 262.7,53.59 350,78.69 689.4,184.95 1016.1,316.38 83.2,33.46 165.6,68.28 247.2,104.98 341,153.45 666.8,334.9 974.4,541.26 83.8,56.16 166.1,114.37 247.1,174.2 296,218.48 573,460.95 828.6,724.41 84.8,87.31 167.3,176.76 247.2,268.59 269.4,309.89 510.4,644.96 719.5,1001.11 95.2,162.24 184,328.75 265.5,499.36 336.5,704.36 552.7,1477.17 622.5,2291.8 16.3,189.9 25.1,381.93 25.1,576.1 0,3678.63 -2982.2,6660.73 -6660.77,6660.73 -3678.62,0 -6660.73,-2982.1 -6660.73,-6660.73 0,-196.56 9.03,-390.98 25.7,-583.27 76.41,-880.43 323.72,-1711.96 709.22,-2460.87 82.26,-159.77 171.05,-315.7 265.54,-467.61" /></g><g
         
         
         id="g76"><path
            transform="translate(200 100) scale(1.05)"
           id="path78"
           style="fill:#f3651e;fill-opacity:1;fill-rule:nonzero;stroke:none"
           d="m 9908.79,4802.49 c 48.39,0 96.61,0.66 144.71,1.87 17.3,0.38 34.4,1.31 51.7,1.87 30.7,1.03 61.4,1.96 92,3.45 20.6,1.03 41.2,2.53 61.8,3.74 27,1.68 54,3.18 81,5.14 21.9,1.68 43.7,3.64 65.6,5.51 20.9,1.87 41.9,3.37 62.8,5.33 l -1.4,0.18 C 7555.3,5111.53 5279.21,7565.6 5279.21,10551.3 c 0,2985.6 2276.09,5439.7 5187.79,5721.6 l 1.4,0.2 c -20.9,2 -41.9,3.5 -62.8,5.3 -21.9,1.9 -43.7,3.9 -65.6,5.5 -27.1,2 -54.4,3.6 -81.5,5.2 -20.4,1.2 -40.7,2.7 -61.1,3.7 -30.9,1.5 -61.9,2.5 -92.9,3.5 -17,0.6 -33.9,1.4 -51,1.9 -48.1,1.2 -96.32,1.8 -144.71,1.8 -3174.94,0 -5748.74,-2573.8 -5748.74,-5748.7 0,-3174.97 2573.8,-5748.81 5748.74,-5748.81"
           /></g><path
         id="path80"
         style="fill:#f3651e;fill-opacity:1;fill-rule:nonzero;stroke:none"
         /><path
         id="path82"
         style="fill:#f3651e;fill-opacity:1;fill-rule:nonzero;stroke:none"
         /><path
         id="path84"
         style="fill:#fbbf3c;fill-opacity:1;fill-rule:nonzero;stroke:none"
         /><g
         transform="scale(1.02755)"
         id="g86"><path
           id="path88"
           style="fill:#ffffff;fill-opacity:1;fill-rule:nonzero;stroke:none"
           d="m 12555.7,13977.7 c 5.5,-6 10.9,-12 16.3,-17.9 266.1,-292.1 556.6,-573.8 914.3,-741.5 122.1,-57.3 253.3,-101 388.1,-102.6 134.8,-1.5 274.2,43.1 367,140.9 130.5,137.6 145.8,348.6 119.3,536.4 -46.5,330.7 -196.9,637.8 -368.4,924.4 -241.1,403 -533.7,783.6 -912.8,1060.9 -339,247.9 -1038,521.7 -1242.9,-30.5 -50,-134.6 -51.2,-282.9 -31.6,-425.1 71.3,-516.6 400.2,-957.9 750.7,-1345" /></g><path
         id="path90"
         style="fill:#ffffff;fill-opacity:1;fill-rule:nonzero;stroke:none"
         d="m 15175.5,11850.6 8.4,-10.9 c 137.7,-178.5 289.3,-352.2 482.3,-463.1 65.8,-37.9 137.2,-68.3 212.1,-74.7 74.9,-6.4 153.9,13.5 208.9,65.9 77.4,73.6 93.2,194.2 85.1,303.1 -14.2,191.7 -87,374.2 -172.3,545.7 -120,241.3 -269.2,471.8 -470.3,646.5 -179.7,156.1 -558.6,341.9 -691.9,33.2 -32.5,-75.2 -38.4,-160.3 -32.5,-242.7 21.5,-299.6 188.9,-566.4 370.2,-803" /></g></g></svg>